<svg id="Layer_1" data-name="Layer 1" xmlns="http://www.w3.org/2000/svg" viewBox="0 0 32 32"><defs><style>.cls-1{fill:#e83367;}</style></defs><path class="cls-1" d="M31.58,14.4a10,10,0,0,1-2.9,6.74,9.91,9.91,0,0,1-4.31,2.66,9.71,9.71,0,0,1-4.67.29A11,11,0,0,1,16.5,23a.77.77,0,0,0-.59,0,10.49,10.49,0,0,1-6.08,1.11,10,10,0,0,1-6.54-3.52A9.63,9.63,0,0,1,1,15.75a9.91,9.91,0,0,1,.21-4.47,10,10,0,0,1,6.3-6.82,9.46,9.46,0,0,1,7.4.15,2.85,2.85,0,0,0,2.65,0,9.21,9.21,0,0,1,5.11-.67A10,10,0,0,1,29,7.24,10.2,10.2,0,0,1,31.58,14.4ZM11,5.57A8.39,8.39,0,0,0,2.61,14a8.34,8.34,0,0,0,8.66,8.53A8.46,8.46,0,0,0,11,5.57Z"/><path class="cls-1" d="M10,16.51c.15-.66.31-1.33.47-2,.28-1.17.55-2.35.84-3.52.14-.56.16-.56.79-.44l-1.32,5.71C10.67,16.65,10.54,16.7,10,16.51Z"/><path class="cls-1" d="M9.47,14.78c-1,.29-1.31-.57-1.86-1a8.11,8.11,0,0,1,1-1,2.29,2.29,0,0,1,.9-.18l0,.11-.69.77c-.19.21-.25.4,0,.64A7,7,0,0,1,9.47,14.78Z"/><path class="cls-1" d="M12.54,14.79a7.1,7.1,0,0,1,.63-.74c.31-.29.18-.51,0-.74s-.42-.45-.64-.68a1.7,1.7,0,0,1,1.82,1,.35.35,0,0,1,0,.2A1.58,1.58,0,0,1,12.54,14.79Z"/></svg>